<?xml version="1.0" standalone="no"?>
<!DOCTYPE svg PUBLIC "-//W3C//DTD SVG 20010904//EN"
 "http://www.w3.org/TR/2001/REC-SVG-20010904/DTD/svg10.dtd">
<svg version="1.0" xmlns="http://www.w3.org/2000/svg"
 width="300.000000pt" height="300.000000pt" viewBox="0 0 300.000000 300.000000"
 preserveAspectRatio="xMidYMid meet">
<metadata>
Created by potrace 1.10, written by Peter Selinger 2001-2011
</metadata>
<g transform="translate(0.000000,300.000000) scale(0.100000,-0.100000)"
fill="#000000" stroke="none">
<path d="M1448 2711 c-40 -21 -140 -79 -223 -128 -82 -49 -181 -107 -218 -129
-72 -41 -81 -46 -137 -80 -19 -11 -69 -40 -110 -64 -168 -98 -274 -166 -287
-187 -20 -31 -4 -56 60 -94 29 -17 93 -55 142 -84 126 -76 134 -79 175 -60 19
9 49 24 65 35 17 11 37 23 45 27 8 3 27 15 42 25 14 10 52 33 85 52 53 31 228
134 263 156 103 64 151 90 162 90 11 0 136 -69 343 -189 17 -10 57 -33 90 -51
33 -19 71 -41 85 -50 14 -10 48 -30 75 -45 106 -59 143 -80 235 -135 101 -60
187 -109 234 -134 26 -13 33 -13 58 0 l28 15 0 200 0 201 -29 26 c-16 15 -69
50 -117 78 -49 27 -171 98 -271 157 -100 59 -186 107 -192 107 -5 0 -11 3 -13
8 -1 4 -52 36 -113 71 -60 35 -121 71 -135 81 -55 37 -245 140 -258 140 -6 0
-44 -17 -84 -39z m467 -222 c182 -106 366 -214 410 -240 44 -25 128 -74 186
-108 l106 -62 7 -195 c4 -108 5 -198 3 -201 -3 -2 -22 7 -44 20 -47 30 -231
138 -423 247 -80 46 -257 148 -394 228 -210 122 -251 143 -270 134 -11 -5
-165 -96 -341 -202 -175 -106 -325 -194 -331 -197 -7 -3 -78 34 -157 81 -79
47 -151 88 -160 92 -28 10 -20 21 45 57 58 31 235 135 777 455 l204 120 26
-18 c14 -10 175 -105 356 -211z"/>
<path d="M1489 2156 c-25 -13 -100 -54 -165 -91 -65 -38 -135 -77 -154 -88
-181 -102 -259 -150 -279 -173 -33 -38 -42 -169 -14 -202 21 -25 188 -112 215
-112 18 0 137 56 148 70 6 7 129 79 216 126 l61 33 79 -46 c233 -136 379 -222
466 -275 53 -32 100 -58 105 -58 5 0 22 -13 39 -28 28 -25 32 -36 38 -103 13
-140 17 -159 46 -188 35 -34 301 -181 328 -181 12 0 28 8 38 17 16 16 17 43
11 334 -4 213 -10 325 -18 343 -14 29 -48 52 -224 151 -66 37 -165 94 -220
125 -481 277 -654 373 -669 370 0 0 -22 -11 -47 -24z m594 -322 l534 -305 7
-202 c3 -111 9 -263 12 -337 l7 -134 -26 16 c-13 10 -90 53 -170 98 -165 92
-152 72 -163 242 l-6 107 -132 77 c-72 43 -167 98 -211 124 -44 26 -157 93
-252 148 l-172 102 -208 -125 -207 -125 -61 31 c-140 74 -144 77 -140 112 3
18 7 52 10 77 6 45 6 46 88 91 107 60 305 172 437 248 58 33 108 60 112 60 4
1 248 -137 541 -305z"/>
<path d="M396 2005 c-9 -9 -19 -28 -22 -42 -11 -43 1 -606 14 -629 10 -19 105
-80 242 -156 68 -38 261 -149 295 -169 17 -10 46 -26 65 -36 19 -10 62 -34 95
-54 33 -20 92 -53 130 -74 39 -21 102 -57 140 -80 39 -23 92 -52 119 -65 l49
-23 61 31 c67 35 146 79 246 137 36 21 83 47 105 58 79 39 236 140 245 157 6
10 10 56 10 102 0 79 -2 86 -27 110 -16 15 -67 45 -115 68 l-87 42 -63 -30
c-85 -42 -242 -125 -248 -131 -3 -4 -34 -21 -70 -40 l-65 -33 -150 87 c-82 48
-166 95 -185 104 -31 15 -77 41 -135 79 -11 6 -29 16 -40 21 -36 16 -190 113
-197 125 -4 6 -8 55 -8 109 0 54 -5 107 -10 117 -11 20 -70 61 -235 163 -107
66 -136 75 -159 52z m279 -173 l85 -53 0 -122 0 -122 98 -56 c128 -74 436
-251 487 -279 22 -12 70 -40 107 -61 l67 -40 38 24 c21 13 83 48 138 77 55 29
136 73 179 98 l80 44 98 -48 99 -49 -3 -88 -3 -89 -308 -174 c-169 -96 -311
-174 -316 -174 -4 0 -255 141 -557 314 l-548 313 -4 327 -4 327 90 -58 c50
-32 130 -82 177 -111z"/>
<path d="M417 1215 c-29 -21 -37 -72 -37 -247 0 -165 0 -167 26 -198 15 -17
42 -39 60 -48 19 -9 82 -46 141 -81 60 -35 126 -74 149 -86 22 -13 58 -34 80
-47 21 -14 44 -27 49 -29 6 -2 65 -37 132 -77 67 -39 126 -72 132 -72 5 0 11
-3 13 -8 4 -10 144 -92 156 -92 6 0 12 -4 14 -9 4 -11 166 -101 182 -101 17 0
113 50 266 140 52 30 478 272 700 398 47 27 100 74 100 90 0 18 -37 50 -120
104 -135 86 -188 117 -214 124 -25 6 -111 -33 -234 -108 -34 -21 -64 -38 -66
-38 -2 0 -47 -25 -101 -55 -53 -30 -99 -55 -101 -55 -2 0 -21 -11 -42 -23
-134 -85 -179 -100 -217 -74 -11 8 -45 28 -75 44 -72 40 -263 152 -317 186
-24 15 -43 24 -43 20 0 -5 -4 -3 -8 3 -4 6 -36 28 -72 49 -36 21 -85 51 -110
66 -25 15 -61 36 -80 47 -19 11 -89 51 -155 90 -156 92 -185 104 -208 87z m29
-24 c8 -8 110 -69 574 -342 91 -53 239 -140 330 -194 91 -54 170 -98 176 -98
6 0 69 32 140 73 162 91 195 109 269 150 33 18 112 62 175 98 63 36 120 65
125 65 6 0 79 -44 164 -99 108 -69 150 -101 140 -106 -8 -5 -122 -70 -254
-144 -203 -116 -387 -221 -640 -366 -27 -16 -68 -38 -91 -50 l-41 -21 -124 73
c-68 40 -176 103 -239 139 -63 37 -236 139 -385 226 -148 87 -287 168 -307
179 l-38 21 0 203 c0 111 4 202 8 202 4 0 12 -4 18 -9z"/>
</g>
</svg>
