<svg width="143" height="107" viewBox="0 0 143 107" fill="none" xmlns="http://www.w3.org/2000/svg">
<path d="M70.6624 105.32C98.6624 105.32 121.362 82.6197 121.362 54.5197C121.362 26.4197 98.5624 3.71973 70.6624 3.71973C42.6624 3.71973 19.9624 26.4197 19.9624 54.5197C19.9624 82.6197 42.6624 105.32 70.6624 105.32Z" fill="#F1F3F9" stroke="#D6DCE8" stroke-width="2" stroke-miterlimit="10"/>
<path d="M22.6623 21.1195C24.2087 21.1195 25.4623 19.8659 25.4623 18.3195C25.4623 16.7731 24.2087 15.5195 22.6623 15.5195C21.1159 15.5195 19.8623 16.7731 19.8623 18.3195C19.8623 19.8659 21.1159 21.1195 22.6623 21.1195Z" fill="#F1F3F9"/>
<path d="M5.5623 75.1197C8.43419 75.1197 10.7623 72.7916 10.7623 69.9197C10.7623 67.0479 8.43419 64.7197 5.5623 64.7197C2.69042 64.7197 0.362305 67.0479 0.362305 69.9197C0.362305 72.7916 2.69042 75.1197 5.5623 75.1197Z" fill="#F1F3F9"/>
<path d="M118.973 27.8363V86.6739C118.973 88.4002 117.535 89.8388 115.809 89.8388H26.4012C24.6749 89.9107 23.2363 88.4721 23.2363 86.7458V27.8363C23.2363 26.038 24.6749 24.6714 26.4012 24.6714H115.809C117.607 24.6714 118.973 26.11 118.973 27.8363Z" fill="white" stroke="#D6DCE8" stroke-width="2" stroke-miterlimit="10"/>
<path d="M118.973 27.8363V32.3678H23.2363V27.8363C23.2363 26.038 24.6749 24.6714 26.4012 24.6714H115.809C117.607 24.6714 118.973 26.11 118.973 27.8363Z" fill="#F1F3F9" stroke="#D6DCE8" stroke-width="2" stroke-miterlimit="10"/>
<path d="M57.906 55.1694C59.3758 55.1694 60.5674 53.9779 60.5674 52.508C60.5674 51.0382 59.3758 49.8467 57.906 49.8467C56.4362 49.8467 55.2446 51.0382 55.2446 52.508C55.2446 53.9779 56.4362 55.1694 57.906 55.1694Z" fill="#9FA8BA"/>
<path d="M84.3757 55.1694C85.8455 55.1694 87.0371 53.9779 87.0371 52.508C87.0371 51.0382 85.8455 49.8467 84.3757 49.8467C82.9059 49.8467 81.7144 51.0382 81.7144 52.508C81.7144 53.9779 82.9059 55.1694 84.3757 55.1694Z" fill="#9FA8BA"/>
<path d="M75.4566 72.6477H67.1129C65.8182 72.6477 64.7393 71.5688 64.7393 70.274C64.7393 68.9793 65.8182 67.9004 67.1129 67.9004H75.3847C76.6794 67.9004 77.7584 68.9793 77.7584 70.274C77.8303 71.5688 76.7513 72.6477 75.4566 72.6477Z" fill="#9FA8BA"/>
<path d="M27.4803 29.8502C28.0762 29.8502 28.5592 29.3672 28.5592 28.7713C28.5592 28.1754 28.0762 27.6924 27.4803 27.6924C26.8844 27.6924 26.4014 28.1754 26.4014 28.7713C26.4014 29.3672 26.8844 29.8502 27.4803 29.8502Z" fill="#9FA8BA"/>
<path d="M30.8607 29.8502C31.4565 29.8502 31.9396 29.3672 31.9396 28.7713C31.9396 28.1754 31.4565 27.6924 30.8607 27.6924C30.2648 27.6924 29.7817 28.1754 29.7817 28.7713C29.7817 29.3672 30.2648 29.8502 30.8607 29.8502Z" fill="#9FA8BA"/>
<path d="M34.3133 29.8502C34.9092 29.8502 35.3922 29.3672 35.3922 28.7713C35.3922 28.1754 34.9092 27.6924 34.3133 27.6924C33.7174 27.6924 33.2344 28.1754 33.2344 28.7713C33.2344 29.3672 33.7174 29.8502 34.3133 29.8502Z" fill="#9FA8BA"/>
<path d="M115.089 17.0471C114.37 17.0471 113.794 16.4717 113.794 15.7524V1.29472C113.794 0.575429 114.37 0 115.089 0C115.808 0 116.384 0.575429 116.384 1.29472V15.7524C116.384 16.4717 115.808 17.0471 115.089 17.0471Z" fill="#9FA8BA"/>
<path d="M125.591 28.1243C125.591 27.405 126.166 26.8296 126.886 26.8296H141.343C142.062 26.8296 142.638 27.405 142.638 28.1243C142.638 28.8436 142.062 29.419 141.343 29.419H126.886C126.166 29.419 125.591 28.8436 125.591 28.1243Z" fill="#9FA8BA"/>
<path d="M124.44 18.7732C123.937 18.2697 123.937 17.4065 124.44 16.903L134.726 6.68915C135.229 6.18565 136.093 6.18565 136.596 6.68915C137.1 7.19265 137.1 8.05579 136.596 8.55929L126.382 18.7732C125.807 19.2767 124.944 19.2767 124.44 18.7732Z" fill="#9FA8BA"/>
</svg>
